<svg width="123" height="88" viewBox="0 0 123 88" fill="none" xmlns="http://www.w3.org/2000/svg">
<g clip-path="url(#clip0_2_24)">
<path fill-rule="evenodd" clip-rule="evenodd" d="M17.37 84.16C17.88 85.3 17.37 86.64 16.22 87.15C15.08 87.66 13.74 87.15 13.23 86C11.96 83.16 10.92 80.21 10.16 77.16C9.41 74.17 8.91 71.07 8.68 67.9C8.59 66.65 9.53 65.56 10.79 65.47C12.04 65.38 13.13 66.32 13.22 67.58C13.43 70.48 13.89 73.31 14.57 76.05C15.27 78.88 16.22 81.58 17.37 84.16ZM26.91 30C25.98 30.83 24.55 30.75 23.71 29.82C22.88 28.89 22.96 27.46 23.89 26.62C26.01 24.73 28.49 22.79 31.05 21.12C33.35 19.62 35.72 18.33 37.98 17.45C39.15 17 40.46 17.58 40.91 18.75C41.36 19.92 40.78 21.23 39.61 21.68C37.66 22.43 35.57 23.58 33.51 24.92C31.15 26.47 28.85 28.26 26.91 30ZM85.7 20.39C84.62 19.76 84.26 18.37 84.89 17.29C85.52 16.21 86.91 15.85 87.99 16.48C90.53 17.96 92.94 19.66 95.19 21.53C97.46 23.41 99.57 25.48 101.49 27.69C102.31 28.64 102.21 30.07 101.26 30.89C100.31 31.71 98.88 31.61 98.06 30.66C96.29 28.62 94.36 26.73 92.3 25.01C90.24 23.31 88.03 21.76 85.7 20.39ZM110.86 70.57C111.02 69.33 112.16 68.45 113.4 68.62C114.64 68.79 115.52 69.92 115.35 71.16C115.01 73.72 114.5 76.21 113.82 78.61C113.13 81.08 112.26 83.46 111.25 85.76C110.74 86.91 109.4 87.43 108.26 86.92C107.11 86.41 106.59 85.07 107.1 83.93C108.04 81.81 108.83 79.63 109.46 77.39C110.08 75.16 110.56 72.88 110.86 70.57Z" fill="#818181"/>
<path fill-rule="evenodd" clip-rule="evenodd" d="M50.9 74.3495C54.2 84.0695 68 84.4195 71.1 74.3495C74.75 77.6395 85.56 78.2895 89.58 80.5395C90.85 81.2495 92 82.1495 92.92 83.3695C93.54 84.1895 94.37 85.6995 94.99 87.3895H27C27.63 85.6995 28.45 84.1895 29.07 83.3695C29.99 82.1495 31.14 81.2495 32.41 80.5395C36.44 78.2995 47.25 77.6395 50.9 74.3495ZM48.37 54.2095C47.68 54.2395 47.15 54.3795 46.8 54.6195C46.6 54.7595 46.45 54.9295 46.35 55.1395C46.24 55.3695 46.19 55.6495 46.2 55.9795C46.23 56.9295 46.73 58.1695 47.69 59.5995L47.7 59.6195L50.82 64.5895C52.07 66.5795 53.39 68.6095 55.02 70.0995C56.59 71.5295 58.49 72.5095 61.01 72.5095C63.74 72.5195 65.73 71.5095 67.35 69.9895C69.03 68.4095 70.36 66.2495 71.67 64.0995L75.19 58.2995C75.85 56.7995 76.08 55.7995 75.93 55.2095C75.84 54.8595 75.45 54.6895 74.8 54.6595C74.66 54.6495 74.52 54.6495 74.37 54.6595C74.21 54.6595 74.05 54.6795 73.88 54.6895C73.79 54.6995 73.7 54.6895 73.61 54.6695C73.3 54.6895 72.97 54.6695 72.65 54.6195L73.86 49.7795C64.92 51.1895 58.23 44.5495 48.78 48.4495L49.46 54.2395C49.06 54.2795 48.7 54.2595 48.37 54.2095ZM76 53.0895C76.87 53.3495 77.42 53.8995 77.65 54.7895C77.9 55.7695 77.63 57.1595 76.79 59.0595C76.77 59.0895 76.76 59.1295 76.74 59.1595L73.18 65.0195C71.81 67.2795 70.41 69.5395 68.56 71.2895C66.63 73.0895 64.26 74.2895 61.02 74.2795C57.99 74.2695 55.71 73.1095 53.84 71.3995C52.03 69.7495 50.65 67.6095 49.34 65.5295L46.22 60.5595C45.08 58.8595 44.48 57.2995 44.45 56.0195C44.43 55.4195 44.53 54.8695 44.76 54.3895C44.99 53.8895 45.35 53.4695 45.83 53.1395C46.06 52.9895 46.31 52.8595 46.59 52.7495C46.39 50.0595 46.31 47.1595 46.44 44.3195C46.51 43.6495 46.64 42.9695 46.83 42.2995C47.63 39.4495 49.63 38.1395 52.11 36.5695C53.48 35.6995 54.97 35.0395 56.54 34.5995C57.53 34.3195 55.7 31.1495 56.72 31.0395C61.68 30.5295 69.7 35.0595 73.17 38.7995C74.9 40.6795 75.99 42.1695 76.23 45.4595L76 53.0895Z" fill="black"/>
<path fill-rule="evenodd" clip-rule="evenodd" d="M50.51 0H75.3C76.37 0 77.24 0.87 77.24 1.94V19.35C77.24 20.42 76.37 21.29 75.3 21.29H50.51C49.44 21.29 48.57 20.42 48.57 19.35V1.94C48.57 0.87 49.44 0 50.51 0ZM76.09 5.43H49.8V19.54C49.8 19.69 49.86 19.82 49.96 19.92C50.06 20.02 50.19 20.08 50.34 20.08H75.55C75.7 20.08 75.83 20.02 75.93 19.92C76.03 19.82 76.09 19.69 76.09 19.54V5.43ZM73.45 2.18C73.98 2.18 74.41 2.61 74.41 3.14C74.41 3.67 73.98 4.1 73.45 4.1C72.92 4.1 72.49 3.67 72.49 3.14C72.49 2.61 72.92 2.18 73.45 2.18ZM66.95 2.18C67.48 2.18 67.91 2.61 67.91 3.14C67.91 3.67 67.48 4.1 66.95 4.1C66.42 4.1 65.99 3.67 65.99 3.14C65.99 2.61 66.42 2.18 66.95 2.18ZM70.2 2.18C70.73 2.18 71.16 2.61 71.16 3.14C71.16 3.67 70.73 4.1 70.2 4.1C69.67 4.1 69.24 3.67 69.24 3.14C69.24 2.61 69.67 2.18 70.2 2.18ZM59.36 11.38L56.2 12.57L59.36 13.77V16.55L54.45 13.77V11.38L59.36 8.6V11.38ZM71.36 11.38V13.77L66.45 16.55V13.77L69.61 12.57L66.45 11.38V8.59L71.36 11.38ZM62.85 17.33H60.76L63.34 7.27H65.43L62.85 17.33Z" fill="#65B372"/>
<path fill-rule="evenodd" clip-rule="evenodd" d="M119.86 55.62C119.9 55.62 119.94 55.62 119.98 55.63C120.23 55.19 120.46 54.72 120.68 54.23C120.69 54.22 120.69 54.21 120.7 54.21C121.01 53.46 121.26 52.69 121.41 51.89C121.53 51.27 121.62 50.63 121.64 49.98H117.88C117.81 51.89 117.24 53.77 116.18 55.62H119.86ZM119.21 56.82H115.43C114.28 58.49 112.73 60.13 110.8 61.75C111.1 61.71 111.41 61.66 111.7 61.6C112.51 61.44 113.29 61.2 114.05 60.87C114.81 60.54 115.53 60.16 116.19 59.71C116.85 59.27 117.46 58.77 118.03 58.2C118.45 57.77 118.86 57.31 119.21 56.82ZM107.57 61.75C105.63 60.13 104.08 58.49 102.94 56.82H99.16C99.52 57.31 99.92 57.77 100.36 58.21C100.93 58.78 101.53 59.28 102.2 59.72C102.86 60.16 103.57 60.55 104.34 60.88C104.35 60.89 104.36 60.89 104.36 60.9C105.11 61.21 105.88 61.46 106.68 61.61C106.97 61.66 107.27 61.7 107.57 61.75ZM98.37 55.62H102.18C101.12 53.77 100.55 51.88 100.48 49.98H96.72C96.75 50.64 96.83 51.27 96.95 51.89C97.11 52.7 97.35 53.48 97.68 54.24C97.88 54.72 98.11 55.18 98.37 55.62ZM96.72 48.78H100.5C100.64 46.91 101.26 45.03 102.37 43.14H98.37C98.12 43.58 97.89 44.04 97.68 44.53C97.67 44.54 97.67 44.55 97.66 44.55C97.35 45.3 97.1 46.07 96.95 46.87C96.82 47.49 96.74 48.12 96.72 48.78ZM99.15 41.94H103.14C104.28 40.3 105.78 38.65 107.65 36.99C107.31 37.03 106.99 37.08 106.67 37.15C105.86 37.31 105.08 37.55 104.32 37.88C103.56 38.21 102.84 38.59 102.18 39.04C101.52 39.48 100.91 39.98 100.34 40.55C99.91 40.98 99.51 41.44 99.15 41.94ZM110.7 36.99C112.58 38.65 114.08 40.3 115.21 41.94H119.2C118.84 41.45 118.44 40.99 118 40.55C117.43 39.98 116.83 39.48 116.16 39.04C115.5 38.6 114.79 38.21 114.02 37.88C114.01 37.87 114 37.87 114 37.86C113.25 37.55 112.48 37.3 111.68 37.15C111.36 37.09 111.03 37.04 110.7 36.99ZM119.99 43.14H115.99C117.1 45.03 117.72 46.91 117.86 48.78H121.64C121.61 48.12 121.53 47.49 121.41 46.87C121.25 46.06 121.01 45.28 120.68 44.52C120.47 44.04 120.24 43.58 119.99 43.14ZM106.43 35.97C107.32 35.79 108.23 35.7 109.18 35.7C110.12 35.7 111.03 35.79 111.93 35.97C112.81 36.14 113.65 36.4 114.48 36.76C114.49 36.76 114.5 36.77 114.51 36.78C115.33 37.13 116.11 37.56 116.84 38.04C117.57 38.52 118.24 39.08 118.86 39.7C119.48 40.32 120.03 40.99 120.52 41.72C121.01 42.45 121.43 43.23 121.78 44.05C122.14 44.89 122.4 45.75 122.58 46.63C122.76 47.52 122.85 48.43 122.85 49.38C122.85 50.32 122.76 51.23 122.58 52.13C122.41 53.01 122.15 53.85 121.79 54.68C121.79 54.69 121.78 54.7 121.77 54.71C121.42 55.54 120.99 56.31 120.51 57.04C120.03 57.77 119.47 58.44 118.85 59.06C118.23 59.68 117.56 60.23 116.83 60.72C116.1 61.21 115.32 61.63 114.5 61.98C113.66 62.34 112.8 62.6 111.92 62.78C111.03 62.96 110.12 63.05 109.17 63.05C108.23 63.05 107.32 62.96 106.42 62.78C105.54 62.61 104.7 62.35 103.87 61.99C103.86 61.99 103.85 61.98 103.84 61.97C103.02 61.62 102.24 61.19 101.51 60.71C100.78 60.23 100.11 59.67 99.49 59.05C98.87 58.43 98.32 57.76 97.83 57.03C97.34 56.3 96.92 55.52 96.57 54.7C96.21 53.86 95.95 53 95.77 52.12C95.59 51.23 95.5 50.32 95.5 49.37C95.5 48.43 95.59 47.52 95.77 46.62C95.94 45.74 96.2 44.9 96.56 44.07C96.56 44.06 96.57 44.05 96.58 44.04C96.93 43.21 97.36 42.44 97.84 41.71C98.32 40.98 98.88 40.31 99.5 39.69C100.12 39.07 100.79 38.52 101.52 38.03C102.25 37.54 103.03 37.12 103.85 36.77C104.68 36.42 105.54 36.16 106.43 35.97ZM109.78 37.77V41.94H113.75C112.7 40.56 111.38 39.17 109.78 37.77ZM109.78 43.14V48.78H116.66C116.5 46.93 115.81 45.05 114.58 43.14H109.78ZM109.78 49.98V55.62H114.79C115.98 53.75 116.61 51.87 116.68 49.98H109.78ZM109.78 56.82V61.04C111.48 59.65 112.87 58.24 113.95 56.82H109.78ZM108.58 61.03V56.81H104.41C105.48 58.23 106.87 59.64 108.58 61.03ZM108.58 55.62V49.98H101.67C101.74 51.87 102.38 53.75 103.56 55.62H108.58ZM108.58 48.78V43.14H103.77C102.54 45.05 101.85 46.93 101.7 48.78H108.58ZM108.58 41.94V37.77C106.97 39.17 105.65 40.56 104.61 41.94H108.58Z" fill="#639ACD"/>
<path d="M19.304 52.8439C18.3014 52.9416 17.2915 52.7577 16.3877 52.3129C16.1829 52.1491 16.014 51.945 15.8912 51.7134C15.7684 51.4817 15.6944 51.2273 15.6737 50.9659C15.6733 50.9268 15.6651 50.8882 15.6497 50.8523C15.6342 50.8163 15.6118 50.7838 15.5837 50.7566C15.5556 50.7294 15.5224 50.708 15.486 50.6937C15.4495 50.6795 15.4107 50.6725 15.3715 50.6734C14.9494 50.6682 14.5274 50.6694 14.1053 50.6728C14.0316 50.6653 13.9578 50.6871 13.9001 50.7336C13.8423 50.7801 13.8052 50.8475 13.7968 50.9212C13.7728 51.3798 13.8503 51.838 14.0239 52.2631C14.1974 52.6883 14.4628 53.0699 14.8009 53.3806C15.6545 54.0467 16.691 54.4365 17.7719 54.4982C18.8983 54.6288 20.0382 54.5804 21.1494 54.3548C22.0026 54.1956 22.7849 53.774 23.387 53.1489C23.7199 52.7385 23.943 52.2502 24.0353 51.7299C24.1277 51.2096 24.0863 50.6744 23.915 50.1745C23.7712 49.8221 23.5485 49.5074 23.2641 49.2544C22.9798 49.0014 22.6412 48.8169 22.2745 48.7151C20.5668 48.1159 18.7221 48.1612 16.9811 47.7059C16.6789 47.6108 16.3096 47.5075 16.1749 47.1875C16.0971 46.9624 16.0917 46.7185 16.1597 46.4901C16.2277 46.2618 16.3655 46.0604 16.5538 45.9145C17.1004 45.6021 17.7229 45.4471 18.3522 45.4668C19.2062 45.3864 20.0671 45.5095 20.8644 45.8262C21.1039 45.967 21.3098 46.1583 21.468 46.3868C21.6261 46.6152 21.7326 46.8754 21.7801 47.1491C21.7824 47.2299 21.8147 47.3069 21.8709 47.3651C21.927 47.4232 22.0029 47.4582 22.0835 47.4633C22.5026 47.4719 22.9219 47.4656 23.341 47.4662C23.4137 47.4749 23.4871 47.457 23.5477 47.416C23.6082 47.3749 23.652 47.3133 23.6708 47.2426C23.6745 46.6772 23.5305 46.1207 23.253 45.6282C22.9754 45.1357 22.5741 44.7242 22.0886 44.4346C20.7486 43.8161 19.2612 43.5885 17.7976 43.778C16.7253 43.8219 15.7007 44.2335 14.8961 44.9437C14.5267 45.3419 14.2766 45.8358 14.1742 46.3691C14.0718 46.9025 14.1212 47.4539 14.3169 47.9606C14.4693 48.3 14.6934 48.6023 14.9738 48.8467C15.2543 49.0911 15.5844 49.2718 15.9414 49.3763C17.6434 49.991 19.5088 49.7937 21.2273 50.3374C21.5622 50.451 21.9522 50.6247 22.0548 50.9974C22.1099 51.2208 22.1058 51.4547 22.0427 51.676C21.9796 51.8973 21.8599 52.0982 21.6953 52.259C20.9805 52.703 20.143 52.9078 19.304 52.8439ZM27.0625 41.5834C23.7396 39.7043 20.4158 37.8268 17.0913 35.9511C16.7577 35.7646 16.3819 35.6667 15.9997 35.6667C15.6175 35.6667 15.2417 35.7646 14.9082 35.9511C11.5966 37.8212 8.28484 39.6911 4.97291 41.561C4.65072 41.7366 4.38138 41.9952 4.19283 42.31C4.00429 42.6248 3.9034 42.9843 3.90064 43.3513V54.6503C3.90595 55.0239 4.01226 55.3891 4.20832 55.7071C4.40438 56.0252 4.68286 56.2843 5.01424 56.4569C5.96559 56.9748 6.8899 57.5453 7.85848 58.0287C8.41753 58.3276 9.03845 58.4922 9.67212 58.5096C10.3058 58.5271 10.9348 58.3968 11.5094 58.129C11.9394 57.8597 12.2893 57.48 12.5226 57.0295C12.7559 56.5789 12.864 56.0741 12.8359 55.5675C12.8433 51.8386 12.837 48.1095 12.8387 44.3805C12.8452 44.3397 12.843 44.2981 12.8323 44.2582C12.8215 44.2183 12.8025 44.1812 12.7764 44.1492C12.7503 44.1172 12.7178 44.0911 12.6809 44.0726C12.644 44.054 12.6036 44.0435 12.5623 44.0416C12.1392 44.0348 11.7153 44.0376 11.2922 44.0405C11.253 44.037 11.2135 44.0418 11.1763 44.0546C11.1391 44.0674 11.105 44.088 11.0763 44.1149C11.0476 44.1418 11.0249 44.1744 11.0097 44.2107C10.9945 44.247 10.9872 44.2861 10.9882 44.3254C10.9825 48.0304 10.9893 51.7365 10.9847 55.442C10.9857 55.6978 10.9085 55.9478 10.7633 56.1584C10.6182 56.369 10.4121 56.5302 10.1727 56.6203C9.89712 56.7018 9.6074 56.7242 9.32252 56.6861C9.03764 56.648 8.76401 56.5502 8.51951 56.3991C7.63816 55.9013 6.75682 55.4036 5.87551 54.9059C5.81711 54.8782 5.7686 54.8333 5.7365 54.7772C5.7044 54.7211 5.69027 54.6565 5.69599 54.5922C5.69599 50.8643 5.69599 47.1367 5.69599 43.4092C5.68986 43.3367 5.7068 43.2641 5.7444 43.2018C5.78199 43.1394 5.83832 43.0906 5.90532 43.0622C9.20604 41.2032 12.5061 39.3423 15.8056 37.4794C15.8629 37.4402 15.9307 37.4193 16.0001 37.4194C16.0695 37.4195 16.1372 37.4406 16.1944 37.4799C19.495 39.3395 22.7955 41.1998 26.0958 43.0607C26.1625 43.0898 26.2184 43.1391 26.2557 43.2016C26.293 43.2641 26.3099 43.3367 26.304 43.4092C26.3034 47.1364 26.303 50.8639 26.3028 54.5917C26.3087 54.6563 26.2949 54.7212 26.2632 54.7779C26.2316 54.8346 26.1836 54.8804 26.1256 54.9094C22.8754 56.7472 19.6235 58.5823 16.3699 60.4148C16.2144 60.5014 16.0304 60.6407 15.8486 60.5358C14.9965 60.0535 14.1548 59.5524 13.3055 59.0655C13.2621 59.0323 13.2098 59.0129 13.1552 59.0096C13.1006 59.0063 13.0463 59.0194 12.9993 59.0472C12.6252 59.2663 12.2314 59.4501 11.8232 59.596C11.6391 59.6705 11.4126 59.6918 11.2859 59.8625C11.4474 60.0382 11.6431 60.1792 11.8609 60.2766C12.8542 60.8518 13.848 61.4264 14.8423 62.0004C15.1711 62.207 15.5493 62.3216 15.9375 62.3324C16.3257 62.3432 16.7096 62.2497 17.0494 62.0618C20.3615 60.1942 23.6735 58.3258 26.9852 56.4566C27.3163 56.2836 27.5946 56.0245 27.7907 55.7066C27.9868 55.3887 28.0935 55.0237 28.0994 54.6502V43.3513C28.0966 42.9916 27.9994 42.6389 27.8174 42.3287C27.6355 42.0184 27.3751 41.7614 27.0625 41.5834Z" fill="#7D7BE7"/>
</g>
<defs>
<clipPath id="clip0_2_24">
<rect width="122.88" height="87.69" fill="white"/>
</clipPath>
</defs>
</svg>
