<svg width="800" height="212" viewBox="0 0 800 212" fill="none" xmlns="http://www.w3.org/2000/svg">
<g clip-path="url(#clip0_1_2)">
<path d="M589.432 15.2338C589.432 6.85491 596.402 0.0545044 604.995 0.0545044H784.434C793.03 0.0545044 799.997 6.85491 799.997 15.2338V196.777C799.997 205.159 793.03 211.954 784.434 211.954H604.995C596.402 211.954 589.432 205.159 589.432 196.78V15.2338Z" fill="#006699"/>
<path d="M-0.00276756 177.552H87.8718V148.699H31.8038V38.6337H-0.00276756V177.552ZM132.362 177.552V81.8679H100.558V177.552H132.362ZM116.463 68.8062C127.551 68.8062 134.455 61.4583 134.455 52.2707C134.249 42.8829 127.551 35.7435 116.674 35.7435C105.794 35.7435 98.6796 42.8857 98.6796 52.2707C98.6796 61.4583 105.583 68.8062 116.255 68.8062H116.463ZM147.127 177.552H178.931V124.115C178.931 121.256 179.137 118.396 179.979 116.359C182.274 110.645 187.507 104.726 196.295 104.726C207.806 104.726 212.411 113.502 212.411 126.358V177.549H244.209V122.687C244.209 93.2954 228.518 79.6196 207.592 79.6196C190.436 79.6196 182.902 89.2102 178.717 95.7438H178.931V81.8679H147.127C147.547 90.8471 147.127 177.552 147.127 177.552ZM289.077 38.6337H257.273V177.552H289.077V146.529L297.025 136.521L321.926 177.552H361.05L319.208 118.154L355.82 77.7465H317.535C317.535 77.7465 291.381 113.897 289.077 118.188V38.6337Z" fill="black"/>
<path d="M446.098 137.638C446.518 135.182 447.146 130.468 447.146 125.138C447.146 100.404 434.59 75.2926 401.533 75.2926C366.172 75.2926 349.85 103.258 349.85 128.623C349.85 159.993 369.729 179.583 404.459 179.583C418.271 179.583 431.03 177.549 441.496 173.261L437.311 152.256C428.729 155.102 419.941 156.528 409.064 156.528C394.21 156.528 381.24 150.428 380.192 137.433L446.098 137.633V137.638ZM379.984 116.123C380.82 107.958 386.264 95.9106 399.862 95.9106C414.297 95.9106 417.649 108.772 417.649 116.123H379.984ZM525.646 38.6337V86.7229H525.227C520.622 79.992 510.998 75.501 498.242 75.501C473.758 75.501 452.209 95.0935 452.415 128.565C452.415 159.59 471.877 179.797 496.144 179.797C509.328 179.797 521.878 174.078 528.159 163.056H528.784L530.043 177.552H558.287C557.87 170.815 557.447 159.182 557.447 147.752V38.6309H525.644L525.646 38.6337ZM525.646 133.261C525.646 135.707 525.438 138.161 525.016 140.195C523.14 148.977 515.606 155.094 506.398 155.094C493.22 155.094 484.638 144.483 484.638 127.748C484.638 112.035 491.967 99.3788 506.61 99.3788C516.442 99.3788 523.345 106.113 525.23 114.478C525.646 116.32 525.646 118.363 525.646 120.197V133.261Z" fill="black"/>
<path d="M653.262 177.435V81.7511H621.458V177.435H653.262ZM637.365 68.6895C648.454 68.6895 655.357 61.3416 655.357 52.1595C655.149 42.769 648.454 35.6267 637.577 35.6267C626.691 35.6267 619.582 42.769 619.582 52.1595C619.582 61.3416 626.483 68.6895 637.157 68.6895H637.363H637.365ZM670.864 177.435H702.665V124.007C702.665 121.15 702.874 118.288 703.713 116.248C706.011 110.531 711.245 104.615 720.032 104.615C731.537 104.615 736.142 113.388 736.142 126.253V177.435H767.943V122.573C767.943 93.1843 752.255 79.5084 731.332 79.5084C714.176 79.5084 706.642 89.0962 702.457 95.6271H702.668V81.7539H670.867C671.281 90.7303 670.864 177.435 670.864 177.435Z" fill="white"/>
</g>
<defs>
<clipPath id="clip0_1_2">
<rect width="800" height="212" fill="white"/>
</clipPath>
</defs>
</svg>
